<mxfile host="app.diagrams.net" modified="2021-05-20T21:42:10.832Z" agent="5.0 (Windows NT 10.0; Win64; x64) AppleWebKit/537.36 (KHTML, like Gecko) Chrome/90.0.4430.212 Safari/537.36" etag="0ecSSRFLFJ4PKr1FQlxG" version="14.6.13" type="github">
  <diagram name="Page-1" id="c7488fd3-1785-93aa-aadb-54a6760d102a">
    <mxGraphModel dx="868" dy="450" grid="1" gridSize="10" guides="1" tooltips="1" connect="1" arrows="1" fold="1" page="1" pageScale="1" pageWidth="1100" pageHeight="850" background="#ffffff" math="0" shadow="0">
      <root>
        <mxCell id="0" />
        <mxCell id="1" parent="0" />
        <mxCell id="2b4e8129b02d487f-1" value="Proceso MKD - Access" style="swimlane;html=1;childLayout=stackLayout;horizontal=1;startSize=20;horizontalStack=0;rounded=0;shadow=0;labelBackgroundColor=none;strokeWidth=1;fontFamily=Verdana;fontSize=8;align=center;" parent="1" vertex="1">
          <mxGeometry x="180" y="70" width="700" height="750" as="geometry" />
        </mxCell>
        <mxCell id="2b4e8129b02d487f-2" value="Macro 1" style="swimlane;html=1;startSize=20;horizontal=0;" parent="2b4e8129b02d487f-1" vertex="1">
          <mxGeometry y="20" width="700" height="90" as="geometry" />
        </mxCell>
        <mxCell id="2b4e8129b02d487f-18" style="edgeStyle=orthogonalEdgeStyle;rounded=0;html=1;labelBackgroundColor=none;startArrow=none;startFill=0;startSize=5;endArrow=classicThin;endFill=1;endSize=5;jettySize=auto;orthogonalLoop=1;strokeWidth=1;fontFamily=Verdana;fontSize=8" parent="2b4e8129b02d487f-2" source="2b4e8129b02d487f-5" target="2b4e8129b02d487f-6" edge="1">
          <mxGeometry relative="1" as="geometry" />
        </mxCell>
        <mxCell id="2b4e8129b02d487f-5" value="" style="ellipse;whiteSpace=wrap;html=1;rounded=0;shadow=0;labelBackgroundColor=none;strokeWidth=1;fontFamily=Verdana;fontSize=8;align=center;" parent="2b4e8129b02d487f-2" vertex="1">
          <mxGeometry x="50" y="30" width="30" height="30" as="geometry" />
        </mxCell>
        <mxCell id="2b4e8129b02d487f-6" value="Limpia las tablas de estilos y variaciones" style="rounded=1;whiteSpace=wrap;html=1;shadow=0;labelBackgroundColor=none;strokeWidth=1;fontFamily=Verdana;fontSize=8;align=center;" parent="2b4e8129b02d487f-2" vertex="1">
          <mxGeometry x="120" y="26.49999999999997" width="70" height="37" as="geometry" />
        </mxCell>
        <mxCell id="2b4e8129b02d487f-24" style="edgeStyle=orthogonalEdgeStyle;rounded=0;html=1;labelBackgroundColor=none;startArrow=none;startFill=0;startSize=5;endArrow=classicThin;endFill=1;endSize=5;jettySize=auto;orthogonalLoop=1;strokeWidth=1;fontFamily=Verdana;fontSize=8" parent="2b4e8129b02d487f-1" source="2b4e8129b02d487f-6" target="2b4e8129b02d487f-12" edge="1">
          <mxGeometry relative="1" as="geometry" />
        </mxCell>
        <mxCell id="2b4e8129b02d487f-3" value="Macro 2" style="swimlane;html=1;startSize=20;horizontal=0;" parent="2b4e8129b02d487f-1" vertex="1">
          <mxGeometry y="110" width="700" height="120" as="geometry" />
        </mxCell>
        <mxCell id="4VyyNgtOQg0zBXDYQDEN-12" style="edgeStyle=orthogonalEdgeStyle;rounded=0;orthogonalLoop=1;jettySize=auto;html=1;entryX=0;entryY=0.5;entryDx=0;entryDy=0;" edge="1" parent="2b4e8129b02d487f-3" source="2b4e8129b02d487f-12" target="4VyyNgtOQg0zBXDYQDEN-10">
          <mxGeometry relative="1" as="geometry" />
        </mxCell>
        <mxCell id="2b4e8129b02d487f-12" value="&lt;p style=&quot;margin-top: 0pt ; margin-bottom: 0pt ; margin-left: 0in ; text-indent: 0in&quot;&gt;&lt;span style=&quot;font-family: &amp;#34;calibri&amp;#34;&quot;&gt;Se&lt;br/&gt;unen las dos tablas anteriores, excluyendo la linea extra garantia y los que&lt;br/&gt;coincidan de ambas tablas les asigna V&amp;nbsp;&lt;br/&gt;(Variación)&lt;/span&gt;&lt;/p&gt;" style="rounded=1;whiteSpace=wrap;html=1;shadow=0;labelBackgroundColor=none;strokeWidth=1;fontFamily=Verdana;fontSize=8;align=center;" parent="2b4e8129b02d487f-3" vertex="1">
          <mxGeometry x="40" y="20" width="113.51" height="60" as="geometry" />
        </mxCell>
        <mxCell id="4VyyNgtOQg0zBXDYQDEN-14" style="edgeStyle=orthogonalEdgeStyle;rounded=0;orthogonalLoop=1;jettySize=auto;html=1;entryX=0;entryY=0.5;entryDx=0;entryDy=0;" edge="1" parent="2b4e8129b02d487f-3" source="4VyyNgtOQg0zBXDYQDEN-10" target="4VyyNgtOQg0zBXDYQDEN-13">
          <mxGeometry relative="1" as="geometry" />
        </mxCell>
        <mxCell id="4VyyNgtOQg0zBXDYQDEN-10" value="&lt;p style=&quot;margin-top: 0pt ; margin-bottom: 0pt ; margin-left: 0in ; text-indent: 0in&quot;&gt;&lt;span style=&quot;font-family: &amp;#34;calibri&amp;#34;&quot;&gt;A&lt;/span&gt;&lt;span style=&quot;font-family: &amp;#34;calibri&amp;#34; ; vertical-align: baseline&quot;&gt;&lt;br&gt;la base de estilo le excluye extra garantia y le asigna E (Estilo) como tipo de&lt;br&gt;producto&lt;/span&gt;&lt;/p&gt;" style="rounded=1;whiteSpace=wrap;html=1;shadow=0;labelBackgroundColor=none;strokeWidth=1;fontFamily=Verdana;fontSize=8;align=center;" vertex="1" parent="2b4e8129b02d487f-3">
          <mxGeometry x="180" y="20" width="110" height="60" as="geometry" />
        </mxCell>
        <mxCell id="4VyyNgtOQg0zBXDYQDEN-17" style="edgeStyle=orthogonalEdgeStyle;rounded=0;orthogonalLoop=1;jettySize=auto;html=1;entryX=0;entryY=0.5;entryDx=0;entryDy=0;" edge="1" parent="2b4e8129b02d487f-3" source="4VyyNgtOQg0zBXDYQDEN-13" target="4VyyNgtOQg0zBXDYQDEN-16">
          <mxGeometry relative="1" as="geometry" />
        </mxCell>
        <mxCell id="4VyyNgtOQg0zBXDYQDEN-13" value="&lt;p style=&quot;margin-top: 0pt ; margin-bottom: 0pt ; margin-left: 0in ; text-indent: 0in&quot;&gt;&lt;span style=&quot;font-family: &amp;#34;calibri&amp;#34;&quot;&gt;Se&lt;br/&gt;unen&lt;/span&gt;&lt;span style=&quot;font-family: &amp;#34;calibri&amp;#34; ; vertical-align: baseline&quot;&gt;&lt;br/&gt;las tablas de estilo y variacion&lt;/span&gt;&lt;/p&gt;" style="rounded=1;whiteSpace=wrap;html=1;shadow=0;labelBackgroundColor=none;strokeWidth=1;fontFamily=Verdana;fontSize=8;align=center;" vertex="1" parent="2b4e8129b02d487f-3">
          <mxGeometry x="315" y="20" width="110" height="60" as="geometry" />
        </mxCell>
        <mxCell id="4VyyNgtOQg0zBXDYQDEN-20" style="edgeStyle=orthogonalEdgeStyle;rounded=0;orthogonalLoop=1;jettySize=auto;html=1;entryX=0;entryY=0.5;entryDx=0;entryDy=0;" edge="1" parent="2b4e8129b02d487f-3" source="4VyyNgtOQg0zBXDYQDEN-16" target="4VyyNgtOQg0zBXDYQDEN-19">
          <mxGeometry relative="1" as="geometry" />
        </mxCell>
        <mxCell id="4VyyNgtOQg0zBXDYQDEN-16" value="&lt;p style=&quot;margin-top: 0pt ; margin-bottom: 0pt ; margin-left: 0in ; text-indent: 0in ; font-size: 9px&quot;&gt;&lt;span style=&quot;font-family: &amp;#34;calibri&amp;#34;&quot;&gt;A&lt;br/&gt;la base anterior&lt;/span&gt;&lt;span style=&quot;font-family: &amp;#34;calibri&amp;#34; ; vertical-align: baseline&quot;&gt; se le agrega sublinea y temporada, con&lt;br/&gt;un mantenedor&lt;/span&gt;&lt;/p&gt;" style="rounded=1;whiteSpace=wrap;html=1;shadow=0;labelBackgroundColor=none;strokeWidth=1;fontFamily=Verdana;fontSize=8;align=center;" vertex="1" parent="2b4e8129b02d487f-3">
          <mxGeometry x="440" y="20" width="110" height="60" as="geometry" />
        </mxCell>
        <mxCell id="4VyyNgtOQg0zBXDYQDEN-19" value="&lt;p style=&quot;margin-top: 0pt ; margin-bottom: 0pt ; margin-left: 0in ; text-indent: 0in&quot;&gt;&lt;font style=&quot;font-size: 8px&quot;&gt;&lt;span style=&quot;font-family: &amp;#34;calibri&amp;#34;&quot;&gt;Agrega el&amp;nbsp;&lt;/span&gt;&lt;span style=&quot;font-family: &amp;#34;calibri&amp;#34; ; vertical-align: baseline&quot;&gt;rango &lt;/span&gt;&lt;span style=&quot;font-family: &amp;#34;calibri&amp;#34;&quot;&gt;de semanas segun la antiguedad, usa&lt;br&gt;mantenedor. Queda&amp;nbsp;&lt;/span&gt;&lt;/font&gt;&lt;span style=&quot;font-family: &amp;#34;calibri&amp;#34; ; text-indent: 0in&quot;&gt;como&lt;/span&gt;&lt;/p&gt;&lt;p style=&quot;margin-top: 0pt ; margin-bottom: 0pt ; margin-left: 0in ; text-indent: 0in&quot;&gt;&lt;span style=&quot;font-family: &amp;#34;calibri&amp;#34;&quot;&gt;&lt;font style=&quot;font-size: 8px&quot;&gt;Tabla final&lt;/font&gt;&lt;/span&gt;&lt;/p&gt;" style="rounded=1;whiteSpace=wrap;html=1;shadow=0;labelBackgroundColor=none;strokeWidth=1;fontFamily=Verdana;fontSize=8;align=center;" vertex="1" parent="2b4e8129b02d487f-3">
          <mxGeometry x="560" y="20" width="110" height="60" as="geometry" />
        </mxCell>
        <mxCell id="2b4e8129b02d487f-4" value="Macro 3" style="swimlane;html=1;startSize=20;horizontal=0;" parent="2b4e8129b02d487f-1" vertex="1">
          <mxGeometry y="230" width="700" height="90" as="geometry">
            <mxRectangle y="110" width="680" height="20" as="alternateBounds" />
          </mxGeometry>
        </mxCell>
        <mxCell id="2b4e8129b02d487f-14" value="&lt;p style=&quot;margin-top: 0pt; margin-bottom: 0pt; margin-left: 0in; text-indent: 0in; font-size: 8px;&quot;&gt;&lt;span style=&quot;font-family: calibri; font-size: 8px;&quot;&gt;Identifica&lt;br style=&quot;font-size: 8px;&quot;&gt;todos aquellos sku que están&lt;/span&gt;&lt;span style=&quot;font-family: calibri; vertical-align: baseline; font-size: 8px;&quot;&gt; sin atributo de Sub-Línea y&lt;br style=&quot;font-size: 8px;&quot;&gt;Temporadas&lt;/span&gt;&lt;/p&gt;" style="rounded=1;whiteSpace=wrap;html=1;shadow=0;labelBackgroundColor=none;strokeWidth=1;fontFamily=Verdana;fontSize=8;align=center;" parent="2b4e8129b02d487f-4" vertex="1">
          <mxGeometry x="40" y="17.5" width="104.05" height="55" as="geometry" />
        </mxCell>
        <mxCell id="4VyyNgtOQg0zBXDYQDEN-2" value="Usuario" style="swimlane;html=1;startSize=20;horizontal=0;" vertex="1" parent="2b4e8129b02d487f-1">
          <mxGeometry y="320" width="700" height="90" as="geometry" />
        </mxCell>
        <mxCell id="4VyyNgtOQg0zBXDYQDEN-42" style="edgeStyle=orthogonalEdgeStyle;rounded=0;orthogonalLoop=1;jettySize=auto;html=1;entryX=0;entryY=0.5;entryDx=0;entryDy=0;fontSize=8;" edge="1" parent="4VyyNgtOQg0zBXDYQDEN-2" source="4VyyNgtOQg0zBXDYQDEN-36" target="4VyyNgtOQg0zBXDYQDEN-41">
          <mxGeometry relative="1" as="geometry" />
        </mxCell>
        <mxCell id="4VyyNgtOQg0zBXDYQDEN-36" value="&lt;p style=&quot;margin-top: 0pt ; margin-bottom: 0pt ; margin-left: 0in ; text-indent: 0in ; font-size: 8px&quot;&gt;&lt;font face=&quot;calibri&quot;&gt;Consulta en Brio los codigos resultantes para obtener la sublinea y temporada&lt;/font&gt;&lt;/p&gt;" style="rounded=1;whiteSpace=wrap;html=1;shadow=0;labelBackgroundColor=none;strokeWidth=1;fontFamily=Verdana;fontSize=8;align=center;" vertex="1" parent="4VyyNgtOQg0zBXDYQDEN-2">
          <mxGeometry x="40" y="17.5" width="104.05" height="55" as="geometry" />
        </mxCell>
        <mxCell id="4VyyNgtOQg0zBXDYQDEN-41" value="&lt;font face=&quot;calibri&quot;&gt;Usario carga tabla con los codigos del paso anterior, esta vez con su temporada y sublinea&lt;/font&gt;" style="rounded=1;whiteSpace=wrap;html=1;shadow=0;labelBackgroundColor=none;strokeWidth=1;fontFamily=Verdana;fontSize=8;align=center;" vertex="1" parent="4VyyNgtOQg0zBXDYQDEN-2">
          <mxGeometry x="180" y="17.5" width="104.05" height="55" as="geometry" />
        </mxCell>
        <mxCell id="4VyyNgtOQg0zBXDYQDEN-25" style="edgeStyle=orthogonalEdgeStyle;rounded=0;orthogonalLoop=1;jettySize=auto;html=1;entryX=0.5;entryY=0;entryDx=0;entryDy=0;" edge="1" parent="2b4e8129b02d487f-1" source="4VyyNgtOQg0zBXDYQDEN-19" target="2b4e8129b02d487f-14">
          <mxGeometry relative="1" as="geometry">
            <mxPoint x="615" y="220" as="targetPoint" />
            <Array as="points">
              <mxPoint x="615" y="210" />
              <mxPoint x="92" y="210" />
            </Array>
          </mxGeometry>
        </mxCell>
        <mxCell id="4VyyNgtOQg0zBXDYQDEN-47" style="edgeStyle=orthogonalEdgeStyle;rounded=0;orthogonalLoop=1;jettySize=auto;html=1;entryX=0.5;entryY=0;entryDx=0;entryDy=0;fontSize=8;" edge="1" parent="2b4e8129b02d487f-1" source="4VyyNgtOQg0zBXDYQDEN-41" target="4VyyNgtOQg0zBXDYQDEN-45">
          <mxGeometry relative="1" as="geometry">
            <Array as="points">
              <mxPoint x="232" y="420" />
              <mxPoint x="102" y="420" />
            </Array>
          </mxGeometry>
        </mxCell>
        <mxCell id="4VyyNgtOQg0zBXDYQDEN-60" style="edgeStyle=orthogonalEdgeStyle;rounded=0;orthogonalLoop=1;jettySize=auto;html=1;entryX=0.5;entryY=0;entryDx=0;entryDy=0;fontSize=6;" edge="1" parent="2b4e8129b02d487f-1" source="2b4e8129b02d487f-14" target="4VyyNgtOQg0zBXDYQDEN-36">
          <mxGeometry relative="1" as="geometry" />
        </mxCell>
        <mxCell id="4VyyNgtOQg0zBXDYQDEN-43" value="Macro 4" style="swimlane;html=1;startSize=20;horizontal=0;" vertex="1" parent="2b4e8129b02d487f-1">
          <mxGeometry y="410" width="700" height="340" as="geometry">
            <mxRectangle y="110" width="680" height="20" as="alternateBounds" />
          </mxGeometry>
        </mxCell>
        <mxCell id="4VyyNgtOQg0zBXDYQDEN-62" style="edgeStyle=orthogonalEdgeStyle;rounded=0;orthogonalLoop=1;jettySize=auto;html=1;entryX=0;entryY=0.5;entryDx=0;entryDy=0;fontSize=6;" edge="1" parent="4VyyNgtOQg0zBXDYQDEN-43" source="4VyyNgtOQg0zBXDYQDEN-45" target="4VyyNgtOQg0zBXDYQDEN-61">
          <mxGeometry relative="1" as="geometry" />
        </mxCell>
        <mxCell id="4VyyNgtOQg0zBXDYQDEN-45" value="&lt;font face=&quot;calibri&quot;&gt;A la base anterior, se le agrega el rango de semana&lt;/font&gt;" style="rounded=1;whiteSpace=wrap;html=1;shadow=0;labelBackgroundColor=none;strokeWidth=1;fontFamily=Verdana;fontSize=8;align=center;" vertex="1" parent="4VyyNgtOQg0zBXDYQDEN-43">
          <mxGeometry x="50" y="20" width="104.05" height="55" as="geometry" />
        </mxCell>
        <mxCell id="4VyyNgtOQg0zBXDYQDEN-53" value="3100" style="text;html=1;strokeColor=none;fillColor=none;align=center;verticalAlign=middle;whiteSpace=wrap;rounded=0;fontSize=6;" vertex="1" parent="4VyyNgtOQg0zBXDYQDEN-43">
          <mxGeometry x="82.03" y="75" width="40" height="15" as="geometry" />
        </mxCell>
        <mxCell id="4VyyNgtOQg0zBXDYQDEN-66" style="edgeStyle=orthogonalEdgeStyle;rounded=0;orthogonalLoop=1;jettySize=auto;html=1;entryX=0;entryY=0.5;entryDx=0;entryDy=0;fontSize=6;" edge="1" parent="4VyyNgtOQg0zBXDYQDEN-43" source="4VyyNgtOQg0zBXDYQDEN-61" target="4VyyNgtOQg0zBXDYQDEN-64">
          <mxGeometry relative="1" as="geometry" />
        </mxCell>
        <mxCell id="4VyyNgtOQg0zBXDYQDEN-61" value="&lt;font face=&quot;calibri&quot;&gt;Aplica&amp;nbsp; 0% Descto a productos TT con Rango Semana &amp;gt;=110&lt;/font&gt;" style="rounded=1;whiteSpace=wrap;html=1;shadow=0;labelBackgroundColor=none;strokeWidth=1;fontFamily=Verdana;fontSize=8;align=center;" vertex="1" parent="4VyyNgtOQg0zBXDYQDEN-43">
          <mxGeometry x="170" y="20" width="104.05" height="55" as="geometry" />
        </mxCell>
        <mxCell id="4VyyNgtOQg0zBXDYQDEN-63" value="3200" style="text;html=1;strokeColor=none;fillColor=none;align=center;verticalAlign=middle;whiteSpace=wrap;rounded=0;fontSize=6;" vertex="1" parent="4VyyNgtOQg0zBXDYQDEN-43">
          <mxGeometry x="202.02999999999997" y="75" width="40" height="15" as="geometry" />
        </mxCell>
        <mxCell id="4VyyNgtOQg0zBXDYQDEN-69" style="edgeStyle=orthogonalEdgeStyle;rounded=0;orthogonalLoop=1;jettySize=auto;html=1;entryX=0;entryY=0.5;entryDx=0;entryDy=0;fontSize=6;" edge="1" parent="4VyyNgtOQg0zBXDYQDEN-43" source="4VyyNgtOQg0zBXDYQDEN-64" target="4VyyNgtOQg0zBXDYQDEN-67">
          <mxGeometry relative="1" as="geometry" />
        </mxCell>
        <mxCell id="4VyyNgtOQg0zBXDYQDEN-64" value="&lt;font face=&quot;calibri&quot;&gt;Aplica&amp;nbsp; 90% Descto a otras temporadas&amp;nbsp;&lt;/font&gt;&lt;span style=&quot;font-family: &amp;#34;calibri&amp;#34;&quot;&gt;con Rango Semana &amp;gt;=110&lt;/span&gt;" style="rounded=1;whiteSpace=wrap;html=1;shadow=0;labelBackgroundColor=none;strokeWidth=1;fontFamily=Verdana;fontSize=8;align=center;" vertex="1" parent="4VyyNgtOQg0zBXDYQDEN-43">
          <mxGeometry x="290" y="20" width="104.05" height="55" as="geometry" />
        </mxCell>
        <mxCell id="4VyyNgtOQg0zBXDYQDEN-65" value="3201" style="text;html=1;strokeColor=none;fillColor=none;align=center;verticalAlign=middle;whiteSpace=wrap;rounded=0;fontSize=6;" vertex="1" parent="4VyyNgtOQg0zBXDYQDEN-43">
          <mxGeometry x="322.03" y="75" width="40" height="15" as="geometry" />
        </mxCell>
        <mxCell id="4VyyNgtOQg0zBXDYQDEN-72" style="edgeStyle=orthogonalEdgeStyle;rounded=0;orthogonalLoop=1;jettySize=auto;html=1;entryX=0;entryY=0.5;entryDx=0;entryDy=0;fontSize=6;" edge="1" parent="4VyyNgtOQg0zBXDYQDEN-43" source="4VyyNgtOQg0zBXDYQDEN-67" target="4VyyNgtOQg0zBXDYQDEN-70">
          <mxGeometry relative="1" as="geometry" />
        </mxCell>
        <mxCell id="4VyyNgtOQg0zBXDYQDEN-67" value="&lt;font face=&quot;calibri&quot;&gt;APLICA MATRIZ DE ARTICULO DEJANDO LOS PRODUCTOS A LOS CUALES NO APLICA MATRIZ&lt;/font&gt;" style="rounded=1;whiteSpace=wrap;html=1;shadow=0;labelBackgroundColor=#ffffff;strokeWidth=1;fontFamily=Verdana;fontSize=8;align=center;arcSize=19;" vertex="1" parent="4VyyNgtOQg0zBXDYQDEN-43">
          <mxGeometry x="420" y="20" width="104.05" height="55" as="geometry" />
        </mxCell>
        <mxCell id="4VyyNgtOQg0zBXDYQDEN-68" value="3202" style="text;html=1;strokeColor=none;fillColor=none;align=center;verticalAlign=middle;whiteSpace=wrap;rounded=0;fontSize=6;" vertex="1" parent="4VyyNgtOQg0zBXDYQDEN-43">
          <mxGeometry x="452.03" y="75" width="40" height="15" as="geometry" />
        </mxCell>
        <mxCell id="4VyyNgtOQg0zBXDYQDEN-107" style="edgeStyle=orthogonalEdgeStyle;rounded=0;orthogonalLoop=1;jettySize=auto;html=1;entryX=1.001;entryY=0.604;entryDx=0;entryDy=0;entryPerimeter=0;fontSize=6;" edge="1" parent="4VyyNgtOQg0zBXDYQDEN-43" source="4VyyNgtOQg0zBXDYQDEN-70" target="4VyyNgtOQg0zBXDYQDEN-75">
          <mxGeometry relative="1" as="geometry">
            <Array as="points">
              <mxPoint x="674" y="48" />
              <mxPoint x="674" y="133" />
            </Array>
          </mxGeometry>
        </mxCell>
        <mxCell id="4VyyNgtOQg0zBXDYQDEN-70" value="&lt;font face=&quot;calibri&quot;&gt;APLICA MATRIZ DE ARTICULO DEJANDO LOS PRODUCTOS A LOS CUALES SI APLICA MATRIZ&lt;/font&gt;" style="rounded=1;whiteSpace=wrap;html=1;shadow=0;labelBackgroundColor=#ffffff;strokeWidth=1;fontFamily=Verdana;fontSize=8;align=center;arcSize=19;" vertex="1" parent="4VyyNgtOQg0zBXDYQDEN-43">
          <mxGeometry x="550" y="20" width="104.05" height="55" as="geometry" />
        </mxCell>
        <mxCell id="4VyyNgtOQg0zBXDYQDEN-71" value="3203" style="text;html=1;strokeColor=none;fillColor=none;align=center;verticalAlign=middle;whiteSpace=wrap;rounded=0;fontSize=6;" vertex="1" parent="4VyyNgtOQg0zBXDYQDEN-43">
          <mxGeometry x="582.03" y="75" width="40" height="15" as="geometry" />
        </mxCell>
        <mxCell id="4VyyNgtOQg0zBXDYQDEN-90" value="" style="group" vertex="1" connectable="0" parent="4VyyNgtOQg0zBXDYQDEN-43">
          <mxGeometry x="550" y="100" width="104.04999999999995" height="67.5" as="geometry" />
        </mxCell>
        <mxCell id="4VyyNgtOQg0zBXDYQDEN-75" value="&lt;font face=&quot;calibri&quot;&gt;NO APLICA LA EXLUSION DE ESTILOS X VARIACION&lt;/font&gt;" style="rounded=1;whiteSpace=wrap;html=1;shadow=0;labelBackgroundColor=#ffffff;strokeWidth=1;fontFamily=Verdana;fontSize=8;align=center;arcSize=19;" vertex="1" parent="4VyyNgtOQg0zBXDYQDEN-90">
          <mxGeometry width="104.05" height="55" as="geometry" />
        </mxCell>
        <mxCell id="4VyyNgtOQg0zBXDYQDEN-76" value="3203_1" style="text;html=1;strokeColor=none;fillColor=none;align=center;verticalAlign=middle;whiteSpace=wrap;rounded=0;fontSize=6;" vertex="1" parent="4VyyNgtOQg0zBXDYQDEN-90">
          <mxGeometry x="32.02999999999997" y="52.5" width="40" height="15" as="geometry" />
        </mxCell>
        <mxCell id="4VyyNgtOQg0zBXDYQDEN-91" value="" style="group" vertex="1" connectable="0" parent="4VyyNgtOQg0zBXDYQDEN-43">
          <mxGeometry x="420" y="100" width="104.05000000000001" height="70" as="geometry" />
        </mxCell>
        <mxCell id="4VyyNgtOQg0zBXDYQDEN-78" value="" style="rounded=1;whiteSpace=wrap;html=1;shadow=0;labelBackgroundColor=#ffffff;strokeWidth=1;fontFamily=Verdana;fontSize=8;align=center;arcSize=19;" vertex="1" parent="4VyyNgtOQg0zBXDYQDEN-91">
          <mxGeometry width="104.05" height="55" as="geometry" />
        </mxCell>
        <mxCell id="4VyyNgtOQg0zBXDYQDEN-79" value="3203_2" style="text;html=1;strokeColor=none;fillColor=none;align=center;verticalAlign=middle;whiteSpace=wrap;rounded=0;fontSize=6;" vertex="1" parent="4VyyNgtOQg0zBXDYQDEN-91">
          <mxGeometry x="32.01999999999995" y="55" width="40" height="15" as="geometry" />
        </mxCell>
        <mxCell id="4VyyNgtOQg0zBXDYQDEN-89" value="" style="group" vertex="1" connectable="0" parent="4VyyNgtOQg0zBXDYQDEN-43">
          <mxGeometry x="289.99999999999994" y="100" width="104.05000000000001" height="70" as="geometry" />
        </mxCell>
        <mxCell id="4VyyNgtOQg0zBXDYQDEN-85" value="NO APLICA LA EXLUSION DE ESTILOS X ESTILO" style="rounded=1;whiteSpace=wrap;html=1;shadow=0;labelBackgroundColor=#ffffff;strokeWidth=1;fontFamily=Verdana;fontSize=8;align=center;arcSize=19;" vertex="1" parent="4VyyNgtOQg0zBXDYQDEN-89">
          <mxGeometry width="104.05" height="55" as="geometry" />
        </mxCell>
        <mxCell id="4VyyNgtOQg0zBXDYQDEN-87" value="3204" style="text;html=1;strokeColor=none;fillColor=none;align=center;verticalAlign=middle;whiteSpace=wrap;rounded=0;fontSize=6;" vertex="1" parent="4VyyNgtOQg0zBXDYQDEN-89">
          <mxGeometry x="30" y="55" width="40" height="15" as="geometry" />
        </mxCell>
        <mxCell id="4VyyNgtOQg0zBXDYQDEN-93" style="edgeStyle=orthogonalEdgeStyle;rounded=0;orthogonalLoop=1;jettySize=auto;html=1;entryX=1;entryY=0.5;entryDx=0;entryDy=0;fontSize=6;" edge="1" parent="4VyyNgtOQg0zBXDYQDEN-43" source="4VyyNgtOQg0zBXDYQDEN-75" target="4VyyNgtOQg0zBXDYQDEN-78">
          <mxGeometry relative="1" as="geometry" />
        </mxCell>
        <mxCell id="4VyyNgtOQg0zBXDYQDEN-94" style="edgeStyle=orthogonalEdgeStyle;rounded=0;orthogonalLoop=1;jettySize=auto;html=1;entryX=1;entryY=0.5;entryDx=0;entryDy=0;fontSize=6;" edge="1" parent="4VyyNgtOQg0zBXDYQDEN-43" source="4VyyNgtOQg0zBXDYQDEN-78" target="4VyyNgtOQg0zBXDYQDEN-85">
          <mxGeometry relative="1" as="geometry" />
        </mxCell>
        <mxCell id="4VyyNgtOQg0zBXDYQDEN-103" value="" style="group" vertex="1" connectable="0" parent="4VyyNgtOQg0zBXDYQDEN-43">
          <mxGeometry x="169.99999999999994" y="100" width="104.05000000000001" height="70" as="geometry" />
        </mxCell>
        <mxCell id="4VyyNgtOQg0zBXDYQDEN-101" value="3205" style="text;html=1;strokeColor=none;fillColor=none;align=center;verticalAlign=middle;whiteSpace=wrap;rounded=0;fontSize=6;" vertex="1" parent="4VyyNgtOQg0zBXDYQDEN-103">
          <mxGeometry x="30" y="55" width="40" height="15" as="geometry" />
        </mxCell>
        <mxCell id="4VyyNgtOQg0zBXDYQDEN-102" value="APLICA MATRIZ EXCLUSION DE ESTILOS" style="rounded=1;whiteSpace=wrap;html=1;shadow=0;labelBackgroundColor=#ffffff;strokeWidth=1;fontFamily=Verdana;fontSize=8;align=center;arcSize=19;" vertex="1" parent="4VyyNgtOQg0zBXDYQDEN-103">
          <mxGeometry width="104.05" height="55" as="geometry" />
        </mxCell>
        <mxCell id="4VyyNgtOQg0zBXDYQDEN-104" style="edgeStyle=orthogonalEdgeStyle;rounded=0;orthogonalLoop=1;jettySize=auto;html=1;entryX=1;entryY=0.5;entryDx=0;entryDy=0;fontSize=6;" edge="1" parent="4VyyNgtOQg0zBXDYQDEN-43" source="4VyyNgtOQg0zBXDYQDEN-85" target="4VyyNgtOQg0zBXDYQDEN-102">
          <mxGeometry relative="1" as="geometry" />
        </mxCell>
        <mxCell id="4VyyNgtOQg0zBXDYQDEN-105" value="3205" style="text;html=1;strokeColor=none;fillColor=none;align=center;verticalAlign=middle;whiteSpace=wrap;rounded=0;fontSize=6;" vertex="1" parent="4VyyNgtOQg0zBXDYQDEN-43">
          <mxGeometry x="80.00999999999993" y="155" width="40" height="15" as="geometry" />
        </mxCell>
        <mxCell id="4VyyNgtOQg0zBXDYQDEN-110" style="edgeStyle=orthogonalEdgeStyle;rounded=0;orthogonalLoop=1;jettySize=auto;html=1;entryX=0;entryY=0.5;entryDx=0;entryDy=0;fontSize=6;" edge="1" parent="4VyyNgtOQg0zBXDYQDEN-43" source="4VyyNgtOQg0zBXDYQDEN-106" target="4VyyNgtOQg0zBXDYQDEN-108">
          <mxGeometry relative="1" as="geometry">
            <Array as="points">
              <mxPoint x="30" y="128" />
              <mxPoint x="30" y="208" />
              <mxPoint x="50" y="208" />
            </Array>
          </mxGeometry>
        </mxCell>
        <mxCell id="4VyyNgtOQg0zBXDYQDEN-106" value="APLICA MATRIZ EXCLUSION DE ESTILOS" style="rounded=1;whiteSpace=wrap;html=1;shadow=0;labelBackgroundColor=#ffffff;strokeWidth=1;fontFamily=Verdana;fontSize=8;align=center;arcSize=19;" vertex="1" parent="4VyyNgtOQg0zBXDYQDEN-43">
          <mxGeometry x="50.009999999999934" y="100" width="104.05" height="55" as="geometry" />
        </mxCell>
        <mxCell id="4VyyNgtOQg0zBXDYQDEN-108" value="NO APLICA LA MATRIZ&amp;nbsp; DE ESTILOS" style="rounded=1;whiteSpace=wrap;html=1;shadow=0;labelBackgroundColor=#ffffff;strokeWidth=1;fontFamily=Verdana;fontSize=8;align=center;arcSize=19;" vertex="1" parent="4VyyNgtOQg0zBXDYQDEN-43">
          <mxGeometry x="49.99999999999994" y="180" width="104.05" height="55" as="geometry" />
        </mxCell>
        <mxCell id="4VyyNgtOQg0zBXDYQDEN-109" value="3206" style="text;html=1;strokeColor=none;fillColor=none;align=center;verticalAlign=middle;whiteSpace=wrap;rounded=0;fontSize=6;" vertex="1" parent="4VyyNgtOQg0zBXDYQDEN-43">
          <mxGeometry x="80.00999999999995" y="235" width="40" height="15" as="geometry" />
        </mxCell>
      </root>
    </mxGraphModel>
  </diagram>
</mxfile>
